/* XPM */
static char * wall_xpm[] = {
"32 32 6 1",
" 	c #40342D",
".	c #221C1A",
"+	c #5A4E44",
"@	c #796755",
"#	c #423934",
"$	c #111010",
"    ..++++++@@##............    ",
"....##++++@@##..##++++++++@@....",
"....##++++@@##..##++++++++@@....",
"++@@..######....##++++++++@@..++",
"++@@..######....##++++++++@@..++",
"++++##..##..##..##++++++++@@..++",
"++++##..##..##..##++++++++@@..++",
"++++####..####....##++++++@@..++",
"++++####..####....##++++++@@..++",
"++++@@..++++++++##..####......++",
"++++@@..++++++++##..####......++",
"++@@..##++++++@@++##....####..++",
"++@@..##++++++@@++##....####..++",
"@@..##..##++@@######..####++####",
"@@..##..##++@@######..####++####",
"..######..##........####++++##..",
"..######..##........####++++##..",
"####++++@@..######..##++++@@##..",
"####++++@@..######..##++++@@##..",
"##++++@@..##++##..####++++@@##..",
"##++++@@..##++##..####++++@@##..",
"++++@@..##++++@@..##++++@@@@##..",
"++++@@..##++++@@..##++++@@@@##..",
"++++@@..##++++@@..##++@@@@####..",
"++++@@..##++++@@..##++@@@@####..",
"......##..##@@####..##########++",
"......##..##@@####..##########++",
"##........@@######..@@..........",
"##........@@######..@@..........",
"..@@@@++##..@@++++....$$$$$$$$$$",
"..@@@@++##..@@++++....$$$$$$$$$$",
"@@@@++++##..@@++..$$$$$$$$$$$$$$"};
